<svg id="图层_2" data-name="图层 2" xmlns="http://www.w3.org/2000/svg" viewBox="0 0 1965.35 1248.57"><defs><style>.cls-1{fill:#ff842d;}.cls-1,.cls-2{stroke:#ff842d;}.cls-1,.cls-2,.cls-3{stroke-miterlimit:10;stroke-width:2px;}.cls-2,.cls-4{fill:none;}.cls-3{fill:#ffcd83;stroke:#ffcd83;}</style></defs><path class="cls-1" d="M399.47,657h0c.76-.26,1.53-.53,2.29-.82C401,656.41,400.25,656.69,399.47,657Zm6.79-2.55q3.44-1.39,6.75-3Q409.68,653,406.26,654.4Zm8.11-3.67q2-1,4-2.09C417.06,649.36,415.72,650.05,414.37,650.73Zm5.34-2.82q.8-.43,1.59-.9l1-.61C421.46,646.91,420.59,647.42,419.71,647.91Zm10.21-6.38.29-.19.16-.12Zm1.23-.86c1.63-1.15,3.24-2.35,4.81-3.59C434.39,638.31,432.78,639.51,431.15,640.67Zm4.81-3.59c.32-.24.64-.5,1-.75l.4-.32c.24-.19.47-.38.71-.59C437.34,636,436.65,636.53,436,637.08Z"/><path class="cls-2" d="M421.3,516.51v15.6H358.89a31.25,31.25,0,0,0-30.23,39,62.42,62.42,0,1,1,92.64-54.62Z"/><path class="cls-2" d="M514.93,578.93a15.61,15.61,0,1,1-15.61-15.61A15.61,15.61,0,0,1,514.93,578.93Z"/><path class="cls-2" d="M514.93,578.93a15.61,15.61,0,1,1-15.61-15.61A15.61,15.61,0,0,1,514.93,578.93Z"/><path class="cls-1" d="M514.93,551.89v27a15.61,15.61,0,1,0-31.21,0v-27a31.28,31.28,0,0,1,31.21,0Z"/><path class="cls-2" d="M514.93,578.93a15.61,15.61,0,1,1-15.61-15.61A15.61,15.61,0,0,1,514.93,578.93Z"/><path class="cls-2" d="M514.93,578.93a15.61,15.61,0,1,1-15.61-15.61A15.61,15.61,0,0,1,514.93,578.93Z"/><path class="cls-2" d="M483.72,516.51v2h0C483.71,517.83,483.72,517.17,483.72,516.51Z"/><path class="cls-2" d="M483.72,516.51v2h0C483.71,517.83,483.72,517.17,483.72,516.51Z"/><path class="cls-2" d="M514.93,534.78v17.11a31.28,31.28,0,0,0-31.21,0V534.77a47,47,0,0,1,31.21,0Z"/><path class="cls-1" d="M514.93,518.48v16.3a47,47,0,0,0-31.21,0V518.48a62,62,0,0,1,11.71-1.85c1.29-.08,2.59-.12,3.89-.12,1,0,2.06,0,3.08.08A61.51,61.51,0,0,1,514.93,518.48Z"/><path class="cls-2" d="M483.72,516.51v2h0C483.71,517.83,483.72,517.17,483.72,516.51Z"/><path class="cls-2" d="M514.93,500.91v17.57a61.51,61.51,0,0,0-12.53-1.89c-1-.05-2-.08-3.08-.08-1.3,0-2.6,0-3.89.12a62,62,0,0,0-11.71,1.85v-2q0-6.09-.57-12c-.12-1.22-.25-2.43-.41-3.64a16.09,16.09,0,0,1,32-2.38A16.53,16.53,0,0,1,514.93,500.91Z"/><path class="cls-1" d="M696,602.13a23.4,23.4,0,0,0-17.26-7.6h-23.4a15.6,15.6,0,0,1-15.61-15.6V415.09a23.41,23.41,0,1,0-46.81,0V578.93a15.61,15.61,0,0,1-31.21,0v-78a62.21,62.21,0,0,0-15.6-41.28,61.41,61.41,0,0,0-5.53-5.53,62.33,62.33,0,0,0-72.49-7.25c-1.36.78-2.69,1.62-4,2.5,1,1.56,2,3.14,2.88,4.75.09.14.17.29.25.43.26.44.51.89.76,1.34l.09.16.2.37c.57,1,1.13,2.07,1.67,3.13a0,0,0,0,0,0,0c.6,1.16,1.18,2.34,1.74,3.53a46.6,46.6,0,0,1,27.1-9h1.09A46.59,46.59,0,0,1,530.53,466a44.07,44.07,0,0,1,3.68,3.68,46.61,46.61,0,0,1,11.92,31.21h0v78a31.21,31.21,0,1,0,62.41,0V415.09a7.81,7.81,0,1,1,15.61,0V578.93a46.6,46.6,0,0,1-7.8,25.89,47.12,47.12,0,0,1-10.93,11.56,46.83,46.83,0,0,1-56.18,0,47.12,47.12,0,0,1-10.92-11.57,46.56,46.56,0,0,1-7.8-25.88v-78c0-.35,0-.71,0-1.06s0-.63,0-.94-.06-.8-.1-1.19-.07-.67-.12-1-.06-.45-.1-.68-.07-.44-.11-.65c-.1-.59-.23-1.18-.37-1.76-.06-.3-.14-.59-.22-.88-.2-.75-.43-1.5-.69-2.22-.08-.24-.17-.48-.26-.71s-.24-.62-.37-.93c-.34-.83-.72-1.63-1.13-2.41l-.24-.45c-.13-.24-.26-.48-.4-.72a30.56,30.56,0,0,0-4-5.45q-.21-.24-.45-.48c-.34-.36-.69-.72-1.06-1.06-.13-.13-.26-.26-.4-.38l-.55-.49-.54-.46a29.84,29.84,0,0,0-3.34-2.45c-.17-.11-.34-.22-.52-.32l-.57-.35c-.68-.39-1.37-.76-2.08-1.09-.4-.2-.81-.39-1.23-.56s-.81-.35-1.23-.5-.61-.23-.92-.33a29.55,29.55,0,0,0-4.62-1.2c-.24-.05-.49-.09-.73-.12-.93-.15-1.87-.25-2.82-.31l-.92,0-1.06,0c-.47,0-.94,0-1.4,0h-.29c-.36,0-.72,0-1.08.08s-.43,0-.64.06c-.38,0-.75.08-1.12.14l-.14,0c-.48.07-1,.15-1.43.25s-.75.15-1.12.24l-.11,0-.57.14-1.11.31c-.35.11-.71.22-1.06.35l-.08,0c-.22.07-.45.15-.67.24l-.58.22-.63.26-.92.4-.77.37c-.64.31-1.26.64-1.88,1a7,7,0,0,0-.63.38,28.49,28.49,0,0,0-3.22,2.24c-.32.26-.64.52-.95.79s-.78.69-1.15,1a122.33,122.33,0,0,1,5,22.5,16.09,16.09,0,0,1,32-2.38,16.53,16.53,0,0,1,.19,2.45v78c0,.58,0,1.15,0,1.72,0,.3,0,.6,0,.89s0,.84.06,1.26c0,.07,0,.13,0,.2s0,.17,0,.26c0,.25,0,.51.06.76s0,.2,0,.3c0,.28.05.56.08.83,0,.51.1,1,.17,1.53s.13,1,.2,1.44a.25.25,0,0,0,0,.12c0,.36.1.72.17,1.08,0,.16.05.33.08.49s0,.32.09.48,0,.05,0,.08c0,.27.1.55.16.83s.09.45.14.68.09.4.13.6.1.4.14.6.11.49.17.73l.18.72c.16.61.32,1.22.5,1.82.13.45.26.91.41,1.35a.74.74,0,0,0,0,.14s0,.08,0,.12c.09.26.17.53.26.79s.2.61.31.91l.33.91c0,.07.05.13.07.19.24.64.48,1.27.74,1.89s.47,1.11.72,1.66c.11.25.21.49.33.73s.28.63.44.94.37.75.56,1.12.41.82.63,1.22.39.72.59,1.08l.42.74c.38.66.77,1.3,1.17,1.94a.41.41,0,0,1,0,.09l.27.42.05.08,0,.05.13.2.06.08c0,.06.07.11.09.16h0l.11.16c.69,1,1.41,2.06,2.15,3,.34.46.69.91,1.05,1.36l.39.48.25.3c.21.27.43.53.66.79s.3.36.46.53l.21.25.1.11.14.15c.33.38.67.75,1,1.12.1.12.21.24.32.35l.12.13.15.15.66.68.55.55c.32.32.64.63,1,.93l.32.31,1.16,1.06.13.11.18.15c.27.25.54.48.81.71l1.28,1A62.39,62.39,0,0,0,608.55,633a61.35,61.35,0,0,0,7.8-5.33,62.21,62.21,0,0,0,39,13.69h23.4a23.42,23.42,0,0,0,23.29-21h0a23.81,23.81,0,0,0,.12-2.4A23.29,23.29,0,0,0,696,602.13Zm-17.26,23.61h-23.4a46.63,46.63,0,0,1-28.1-9.36,62.42,62.42,0,0,0,7.82-13.73,31.09,31.09,0,0,0,20.28,7.49l1.35,0s0,0,0,0h22.06a7.79,7.79,0,0,1,7,4.38,7.68,7.68,0,0,1,.79,3.42A7.8,7.8,0,0,1,678.77,625.74Z"/><path class="cls-1" d="M624.16,415.09V578.93a46.6,46.6,0,0,1-7.8,25.89,47.12,47.12,0,0,1-10.93,11.56,46.83,46.83,0,0,1-56.18,0,47.12,47.12,0,0,1-10.92-11.57,46.56,46.56,0,0,1-7.8-25.88v-78c0-.35,0-.71,0-1.06s0-.63,0-.94-.06-.8-.1-1.19-.07-.67-.12-1-.06-.45-.1-.68-.07-.44-.11-.65c-.1-.59-.23-1.18-.37-1.76-.06-.3-.14-.59-.22-.88-.2-.75-.43-1.5-.69-2.22-.08-.24-.17-.48-.26-.71s-.24-.62-.37-.93c-.34-.83-.72-1.63-1.13-2.41l-.24-.45c-.13-.24-.26-.48-.4-.72a30.56,30.56,0,0,0-4-5.45q-.21-.24-.45-.48c-.34-.36-.69-.72-1.06-1.06-.13-.13-.26-.26-.4-.38l-.55-.49c-.18-.16-.36-.32-.54-.46a29.84,29.84,0,0,0-3.34-2.45c-.17-.11-.34-.22-.52-.32l-.57-.35c-.68-.39-1.37-.76-2.08-1.09-.4-.2-.81-.39-1.23-.56s-.81-.35-1.23-.5-.61-.23-.92-.33a29.55,29.55,0,0,0-4.62-1.2c-.24-.05-.49-.09-.73-.12-.93-.15-1.87-.25-2.82-.31l-.92,0-1.06,0c-.47,0-.94,0-1.4,0h-.29c-.36,0-.72,0-1.08.08s-.43,0-.64.06c-.38,0-.75.08-1.12.14l-.14,0c-.48.07-1,.15-1.43.25s-.75.15-1.12.24l-.11,0-.57.14-1.11.31c-.35.11-.71.22-1.06.35l-.08,0c-.22.07-.45.15-.67.24l-.58.22c-.21.08-.42.16-.63.26l-.92.4a7.76,7.76,0,0,0-.77.37c-.64.31-1.26.64-1.88,1a7,7,0,0,0-.63.38,28.49,28.49,0,0,0-3.22,2.24c-.32.26-.64.52-.95.79s-.78.69-1.15,1c-.21-.66-.43-1.31-.65-2-.11-.34-.23-.69-.35-1s-.32-.91-.49-1.37c-.26-.72-.52-1.44-.8-2.15s-.53-1.38-.82-2.07a.14.14,0,0,0,0-.06.36.36,0,0,0,0-.09c-.21-.53-.43-1.06-.65-1.58q-1.05-2.5-2.21-4.95a46.6,46.6,0,0,1,27.1-9h1.09A46.59,46.59,0,0,1,530.53,466a44.07,44.07,0,0,1,3.68,3.68,46.61,46.61,0,0,1,11.92,31.21h0v78a31.21,31.21,0,1,0,62.41,0V415.09a7.81,7.81,0,1,1,15.61,0Z"/><path class="cls-2" d="M656.71,625.74h-1.34l1.33,0Z"/><path class="cls-2" d="M656.72,610.11s0,0,0,0h-1.34Z"/><path class="cls-1" d="M686.57,617.94a7.8,7.8,0,0,1-7.8,7.8H656.71v0l-1.33,0a46.63,46.63,0,0,1-28.1-9.36,62.42,62.42,0,0,0,7.82-13.73,31.09,31.09,0,0,0,20.28,7.49h23.4a7.79,7.79,0,0,1,7,4.38A7.68,7.68,0,0,1,686.57,617.94Z"/><path class="cls-2" d="M656.72,610.11s0,0,0,0h-1.34Z"/><path class="cls-1" d="M741.19,594.53a23.41,23.41,0,1,0,23.4,23.41A23.41,23.41,0,0,0,741.19,594.53Zm0,31.21a7.8,7.8,0,1,1,7.8-7.8A7.8,7.8,0,0,1,741.19,625.74Z"/><path class="cls-3" d="M741.19,391.68a23.41,23.41,0,0,0-23.41,23.41V555.52a23.41,23.41,0,0,0,46.81,0V415.09A23.41,23.41,0,0,0,741.19,391.68ZM749,555.52a7.8,7.8,0,1,1-15.6,0V415.09a7.8,7.8,0,1,1,15.6,0Z"/><circle class="cls-2" cx="741.19" cy="617.94" r="7.8" transform="translate(-219.86 705.09) rotate(-45)"/><path class="cls-3" d="M749,415.09V555.52a7.8,7.8,0,1,1-15.6,0V415.09a7.8,7.8,0,1,1,15.6,0Z"/><path class="cls-3" d="M846,623.46a7.82,7.82,0,0,1-11,0l-15.6-15.6-54.78-54.79V531l65.81,65.8L846,612.42A7.82,7.82,0,0,1,846,623.46Z"/><path class="cls-3" d="M857,601.39a23.41,23.41,0,1,1-33.1,33.1l-64.43-64.43a23.18,23.18,0,0,0,5.08-14.54v-2.45l54.78,54.79,15.6,15.6a7.81,7.81,0,1,0,11-11L830.4,596.81,764.59,531V502l65.81-65.81L846,420.6a7.8,7.8,0,0,0-11-11l-15.6,15.6L764.59,480V457.89l59.35-59.35a23.41,23.41,0,0,1,33.1,33.1l-84.87,84.88Z"/><path class="cls-3" d="M846,420.6,830.4,436.21,764.59,502V480l54.78-54.78,15.6-15.6a7.8,7.8,0,0,1,11,11Z"/><path class="cls-1" d="M897.23,391.68a23.41,23.41,0,1,0,23.4,23.41A23.41,23.41,0,0,0,897.23,391.68Zm0,31.21a7.81,7.81,0,1,1,7.8-7.8A7.8,7.8,0,0,1,897.23,422.89Z"/><path class="cls-4" d="M905,415.09a7.8,7.8,0,1,1-7.8-7.81A7.8,7.8,0,0,1,905,415.09Z"/><path class="cls-4" d="M905,415.09a7.8,7.8,0,1,1-7.8-7.81A7.8,7.8,0,0,1,905,415.09Z"/><path class="cls-3" d="M897.23,454.1a23.41,23.41,0,0,0-23.41,23.4V617.94a23.41,23.41,0,1,0,46.81,0V477.5A23.4,23.4,0,0,0,897.23,454.1ZM905,617.94a7.8,7.8,0,1,1-15.6,0V477.5a7.8,7.8,0,1,1,15.6,0Z"/><path class="cls-3" d="M905,477.5V617.94a7.8,7.8,0,1,1-15.6,0V477.5a7.8,7.8,0,1,1,15.6,0Z"/><path class="cls-2" d="M421.3,516.51v15.6H358.89a31.25,31.25,0,0,0-30.23,39,62.42,62.42,0,1,1,92.64-54.62Z"/><path class="cls-2" d="M527.41,616.38a46.85,46.85,0,0,1-71.87-20.86c-.19-.49-.36-1-.53-1.48a46.63,46.63,0,0,1-2.5-15.11V547.72a15.42,15.42,0,0,0-2-7.67,15.15,15.15,0,0,0-1.07-1.66.76.76,0,0,1-.11-.14,15.58,15.58,0,0,0-12.4-6.14v-15.6a78,78,0,1,0-78.92,78h19.32a7.8,7.8,0,0,0,7.68-6.45,7.53,7.53,0,0,0,.12-1.35,7.8,7.8,0,0,0-4.61-7.12,7.7,7.7,0,0,0-3.19-.68H358.89a15.61,15.61,0,1,1,0-31.21H421.3a15.61,15.61,0,0,1,15.61,15.6v55.51a108.8,108.8,0,0,1-31.05,22.34l-.16.07v-23.3a7.81,7.81,0,1,0-15.61,0v3.27A109.23,109.23,0,0,1,275.47,446l0,0a109.2,109.2,0,0,1,166.77,0l0,0a108.5,108.5,0,0,1,17.79,29.34,108.94,108.94,0,0,1,8,41.16v62.42a31.22,31.22,0,0,0,51.49,23.72c.23.56.47,1.11.72,1.66.11.25.21.49.33.73s.28.63.44.94.36.75.56,1.12.41.82.63,1.22.39.72.59,1.08l.42.74c.38.66.77,1.3,1.17,1.94a.41.41,0,0,1,0,.09l.27.42.05.08,0,.05.13.2.15.24h0l.11.16C526,614.37,526.66,615.38,527.41,616.38Z"/><path class="cls-1" d="M537.06,626.6c-.27-.23-.54-.46-.81-.71l-.18-.15-.13-.11-1.16-1.06-.32-.31c-.33-.3-.65-.61-1-.93l-.55-.55-.66-.68-.15-.15-.12-.13c-.11-.11-.22-.23-.32-.35-.35-.37-.69-.74-1-1.12l-.14-.15-.1-.11-.21-.25c-.16-.17-.31-.35-.46-.53s-.45-.52-.66-.79l-.25-.3-.39-.48c-.36-.45-.71-.9-1.05-1.36a46.85,46.85,0,0,1-71.87-20.86c-.19-.49-.36-1-.53-1.48a46.63,46.63,0,0,1-2.5-15.11V547.72a15.42,15.42,0,0,0-2-7.67,15.15,15.15,0,0,0-1.07-1.66.76.76,0,0,1-.11-.14,15.58,15.58,0,0,0-12.4-6.14v-15.6a78,78,0,1,0-78.92,78h19.32a7.8,7.8,0,0,0,7.68-6.45,7.53,7.53,0,0,0,.12-1.35,7.8,7.8,0,0,0-4.61-7.12,7.7,7.7,0,0,0-3.19-.68H358.89a15.61,15.61,0,1,1,0-31.21H421.3a15.61,15.61,0,0,1,15.61,15.6v55.51a108.8,108.8,0,0,1-31.05,22.34l-.16.07v-23.3a7.81,7.81,0,1,0-15.61,0v3.27A109.23,109.23,0,0,1,275.47,446l0,0a109.2,109.2,0,0,1,166.77,0l0,0a108.5,108.5,0,0,1,17.79,29.34,108.94,108.94,0,0,1,8,41.16v62.42a31.22,31.22,0,0,0,51.49,23.72c-.26-.62-.5-1.25-.74-1.89,0-.06-.05-.12-.07-.19l-.33-.91c-.11-.3-.21-.61-.31-.91s-.17-.53-.26-.79c0,0,0-.08,0-.12a.74.74,0,0,1,0-.14c-.15-.44-.28-.9-.41-1.35-.18-.6-.34-1.21-.5-1.82l-.18-.72c-.06-.24-.11-.48-.17-.73s-.09-.4-.14-.6-.09-.4-.13-.6-.1-.45-.14-.68-.11-.56-.16-.83c0,0,0,0,0-.08s-.06-.32-.09-.48,0-.33-.08-.49c-.07-.36-.12-.72-.17-1.08a.25.25,0,0,1,0-.12c-.07-.48-.14-1-.2-1.44s-.12-1-.17-1.53c0-.27,0-.55-.08-.83,0-.1,0-.2,0-.3s0-.51-.06-.76c0-.09,0-.17,0-.26s0-.13,0-.2q0-.63-.06-1.26c0-.29,0-.59,0-.89,0-.57,0-1.14,0-1.72a15.61,15.61,0,0,1-31.21,0V518.48h0c0-.65,0-1.31,0-2q0-6.09-.57-12c-.12-1.22-.25-2.43-.41-3.64a122.33,122.33,0,0,0-5-22.5c-.21-.66-.43-1.31-.65-2-.11-.34-.23-.69-.35-1s-.32-.91-.49-1.37c-.26-.72-.52-1.44-.8-2.15s-.53-1.38-.82-2.07a.14.14,0,0,0,0-.06.36.36,0,0,0,0-.09c-.21-.53-.43-1.06-.65-1.58q-1.05-2.5-2.21-4.95c-.56-1.19-1.14-2.37-1.74-3.53a0,0,0,0,1,0,0c-.54-1.06-1.1-2.1-1.67-3.13l-.2-.37-.09-.16c-.25-.45-.5-.9-.76-1.34-.08-.14-.16-.29-.25-.43-.92-1.61-1.89-3.19-2.88-4.75a124.85,124.85,0,0,0-230.08,65.86c0,.43,0,.87,0,1.3,0,3.76.17,7.49.49,11.17v0a124.42,124.42,0,0,0,31.87,72.68s0,0,0,0a125.09,125.09,0,0,0,123.67,37v11.73A7.81,7.81,0,0,0,397.9,657h1.57c.78-.26,1.56-.54,2.34-.82l1.43-.54,1.42-.55,1.6-.64q3.42-1.41,6.75-3l1.36-.66c1.35-.68,2.69-1.37,4-2.09l1.32-.73c.88-.49,1.75-1,2.62-1.51s1.72-1,2.57-1.56l1.27-.8,1.26-.82,1.25-.84,1.24-.85.45-.31.17-.12.61-.43c1.63-1.16,3.24-2.36,4.81-3.59.69-.55,1.38-1.1,2.06-1.66l1.56-1.3c.34-.28.67-.57,1-.86l1.28-1.12,1.57-1.42c.54-.49,1.07-1,1.59-1.49l0,0,.82-.8.21-.2c.56-.54,1.11-1.09,1.65-1.64l.79-.81c.54-.55,1.07-1.11,1.6-1.67l.15-.16,1-1.11c.34-.36.67-.74,1-1.11.08-.08.15-.17.22-.25s.37-.41.55-.62a62.43,62.43,0,0,0,85.28,6.83ZM421.3,532.11H358.89a31.25,31.25,0,0,0-30.23,39,62.42,62.42,0,1,1,92.64-54.62Z"/><path class="cls-2" d="M421.3,516.51v15.6H358.89a31.25,31.25,0,0,0-30.23,39,62.42,62.42,0,1,1,92.64-54.62Z"/></svg>