<svg width="29" height="32" viewBox="0 0 29 32" fill="none" xmlns="http://www.w3.org/2000/svg">
<path d="M16.9028 28.6047C16.6586 29.0291 16.3081 29.3814 15.8864 29.6262C15.4647 29.8711 14.9866 30 14.5 30C14.0134 30 13.5353 29.8711 13.1136 29.6262C12.6919 29.3814 12.3414 29.0291 12.0972 28.6047M22.8333 10.4015C22.8333 8.17328 21.9554 6.03632 20.3926 4.46074C18.8298 2.88515 16.7101 2 14.5 2C12.2899 2 10.1702 2.88515 8.60744 4.46074C7.04464 6.03632 6.16667 8.17328 6.16667 10.4015C6.16667 20.2032 2 23.0037 2 23.0037H27C27 23.0037 22.8333 20.2032 22.8333 10.4015Z" stroke="black" stroke-width="3" stroke-linecap="round" stroke-linejoin="round"/>
</svg>
