<svg width="29" height="32" viewBox="0 0 29 32" fill="none" xmlns="http://www.w3.org/2000/svg">
<path d="M26.9992 22.9634V27.1785C27.0006 27.5698 26.9289 27.9571 26.7887 28.3157C26.6484 28.6742 26.4428 28.9961 26.1848 29.2606C25.9268 29.5251 25.6223 29.7265 25.2907 29.8519C24.959 29.9773 24.6076 30.0238 24.259 29.9886C20.391 29.5188 16.6755 28.0414 13.4111 25.6751C10.374 23.5179 7.79908 20.6397 5.86917 17.2449C3.74483 13.5794 2.4228 9.40611 2.0102 5.06313C1.97879 4.67459 2.0201 4.28299 2.1315 3.91328C2.2429 3.54356 2.42196 3.20382 2.65726 2.91569C2.89256 2.62756 3.17896 2.39736 3.49822 2.23973C3.81748 2.0821 4.1626 2.0005 4.51162 2.00014H8.2826C8.89263 1.99343 9.48402 2.23489 9.94656 2.67952C10.4091 3.12415 10.7112 3.74161 10.7966 4.41681C10.9557 5.76574 11.2509 7.09022 11.6765 8.36498C11.8456 8.86788 11.8822 9.41443 11.7819 9.93987C11.6817 10.4653 11.4488 10.9476 11.1108 11.3296L9.51445 13.114C11.3039 16.6316 13.9095 19.5441 17.0564 21.5443L18.6528 19.7599C18.9946 19.3821 19.426 19.1218 19.8961 19.0097C20.3662 18.8977 20.8551 18.9386 21.305 19.1276C22.4455 19.6033 23.6304 19.9332 24.8372 20.1111C25.4478 20.2074 26.0054 20.5512 26.4041 21.0771C26.8027 21.603 27.0145 22.2743 26.9992 22.9634Z" stroke="black" stroke-width="3" stroke-linecap="round" stroke-linejoin="round"/>
</svg>
