<svg width="26" height="32" viewBox="0 0 26 32" fill="none" xmlns="http://www.w3.org/2000/svg">
<path d="M18.5 4.8H21.25C21.9793 4.8 22.6788 5.095 23.1945 5.6201C23.7103 6.1452 24 6.85739 24 7.6V27.2C24 27.9426 23.7103 28.6548 23.1945 29.1799C22.6788 29.705 21.9793 30 21.25 30H4.75C4.02065 30 3.32118 29.705 2.80546 29.1799C2.28973 28.6548 2 27.9426 2 27.2V7.6C2 6.85739 2.28973 6.1452 2.80546 5.6201C3.32118 5.095 4.02065 4.8 4.75 4.8H7.5M8.875 2H17.125C17.8844 2 18.5 2.6268 18.5 3.4V6.2C18.5 6.9732 17.8844 7.6 17.125 7.6H8.875C8.11561 7.6 7.5 6.9732 7.5 6.2V3.4C7.5 2.6268 8.11561 2 8.875 2Z" stroke="black" stroke-width="3" stroke-linecap="round" stroke-linejoin="round"/>
</svg>
