<svg width="28" height="33" viewBox="0 0 28 33" fill="none" xmlns="http://www.w3.org/2000/svg">
<path d="M0 4.76667C0 2.41025 1.92862 0.5 4.30769 0.5C6.68677 0.5 8.61539 2.41025 8.61539 4.76667V28.2333C8.61539 30.5897 6.68677 32.5 4.30769 32.5C1.92862 32.5 0 30.5897 0 28.2333V4.76667Z" fill="#FF842D"/>
<path d="M9.69231 19.7C9.69231 17.3436 11.6209 15.4333 14 15.4333C16.3791 15.4333 18.3077 17.3436 18.3077 19.7V28.2333C18.3077 30.5897 16.3791 32.5 14 32.5C11.6209 32.5 9.69231 30.5897 9.69231 28.2333V19.7Z" fill="#FF842D"/>
<path d="M19.3846 11.1667C19.3846 8.81025 21.3132 6.9 23.6923 6.9C26.0714 6.9 28 8.81025 28 11.1667V28.2333C28 30.5897 26.0714 32.5 23.6923 32.5C21.3132 32.5 19.3846 30.5897 19.3846 28.2333V11.1667Z" fill="#FF842D"/>
</svg>
