<svg width="79" height="15" viewBox="0 0 79 15" fill="none" xmlns="http://www.w3.org/2000/svg">
<path d="M7.4668 12.2168H7.46582L3.71875 14.1875C3.44924 14.3292 3.12232 14.3059 2.87598 14.127C2.63006 13.948 2.50628 13.6446 2.55762 13.3447L3.27344 9.17188L0.241211 6.21973C0.0234637 6.0073 -0.0547741 5.68882 0.0390625 5.39941C0.133075 5.11018 0.383637 4.89858 0.68457 4.85449L4.875 4.24219L6.74902 0.445312L6.80566 0.348633C6.95325 0.132435 7.20029 0.000108804 7.4668 0V12.2168Z" fill="#FFEDD2"/>
<path d="M7.4668 12.2168H7.46777L11.2148 14.1875C11.4844 14.3292 11.8113 14.3059 12.0576 14.127C12.3035 13.948 12.4273 13.6446 12.376 13.3447L11.6602 9.17188L14.6924 6.21973C14.9101 6.0073 14.9884 5.68882 14.8945 5.39941C14.8005 5.11018 14.55 4.89858 14.249 4.85449L10.0586 4.24219L8.18457 0.445312L8.12793 0.348633C7.98035 0.132435 7.7333 0.000108804 7.4668 0V12.2168Z" fill="#FFEDD2"/>
<path d="M23.4004 12.2168H23.3994L19.6523 14.1875C19.3828 14.3292 19.0559 14.3059 18.8096 14.127C18.5637 13.948 18.4399 13.6446 18.4912 13.3447L19.207 9.17188L16.1748 6.21973C15.9571 6.0073 15.8788 5.68882 15.9727 5.39941C16.0667 5.11018 16.3172 4.89858 16.6182 4.85449L20.8086 4.24219L22.6826 0.445312L22.7393 0.348633C22.8868 0.132435 23.1339 0.000108804 23.4004 0V12.2168Z" fill="#FFEDD2"/>
<path d="M23.4004 12.2168H23.4014L27.1484 14.1875C27.4179 14.3292 27.7449 14.3059 27.9912 14.127C28.2371 13.948 28.3609 13.6446 28.3096 13.3447L27.5938 9.17188L30.626 6.21973C30.8437 6.0073 30.922 5.68882 30.8281 5.39941C30.7341 5.11018 30.4836 4.89858 30.1826 4.85449L25.9922 4.24219L24.1182 0.445312L24.0615 0.348633C23.9139 0.132435 23.6669 0.000108804 23.4004 0V12.2168Z" fill="#FFEDD2"/>
<path d="M39.334 12.2168H39.333L35.5859 14.1875C35.3164 14.3292 34.9895 14.3059 34.7432 14.127C34.4973 13.948 34.3735 13.6446 34.4248 13.3447L35.1406 9.17188L32.1084 6.21973C31.8907 6.0073 31.8124 5.68882 31.9062 5.39941C32.0003 5.11018 32.2508 4.89858 32.5518 4.85449L36.7422 4.24219L38.6162 0.445312L38.6729 0.348633C38.8204 0.132435 39.0675 0.000108804 39.334 0V12.2168Z" fill="#FFEDD2"/>
<path d="M39.334 12.2168H39.335L43.082 14.1875C43.3515 14.3292 43.6785 14.3059 43.9248 14.127C44.1707 13.948 44.2945 13.6446 44.2432 13.3447L43.5273 9.17188L46.5596 6.21973C46.7773 6.0073 46.8556 5.68882 46.7617 5.39941C46.6677 5.11018 46.4171 4.89858 46.1162 4.85449L41.9258 4.24219L40.0518 0.445312L39.9951 0.348633C39.8475 0.132435 39.6005 0.000108804 39.334 0V12.2168Z" fill="#FFEDD2"/>
<path d="M55.2676 12.2168H55.2666L51.5195 14.1875C51.25 14.3292 50.9231 14.3059 50.6768 14.127C50.4308 13.948 50.3071 13.6446 50.3584 13.3447L51.0742 9.17188L48.042 6.21973C47.8242 6.0073 47.746 5.68882 47.8398 5.39941C47.9339 5.11018 48.1844 4.89858 48.4854 4.85449L52.6758 4.24219L54.5498 0.445312L54.6064 0.348633C54.754 0.132435 55.0011 0.000108804 55.2676 0V12.2168Z" fill="#FFEDD2"/>
<path d="M55.2676 12.2168H55.2686L59.0156 14.1875C59.2851 14.3292 59.6121 14.3059 59.8584 14.127C60.1043 13.948 60.2281 13.6446 60.1768 13.3447L59.4609 9.17188L62.4932 6.21973C62.7109 6.0073 62.7891 5.68882 62.6953 5.39941C62.6013 5.11018 62.3507 4.89858 62.0498 4.85449L57.8594 4.24219L55.9854 0.445312L55.9287 0.348633C55.7811 0.132435 55.5341 0.000108804 55.2676 0V12.2168Z" fill="#FFCD83"/>
<path d="M71.2012 12.2168H71.2002L67.4531 14.1875C67.1836 14.3292 66.8567 14.3059 66.6104 14.127C66.3644 13.948 66.2407 13.6446 66.292 13.3447L67.0078 9.17188L63.9756 6.21973C63.7578 6.0073 63.6796 5.68882 63.7734 5.39941C63.8675 5.11018 64.118 4.89858 64.4189 4.85449L68.6094 4.24219L70.4834 0.445312L70.54 0.348633C70.6876 0.132435 70.9347 0.000108804 71.2012 0V12.2168Z" fill="#FFCD83"/>
<path d="M71.2012 12.2168H71.2021L74.9492 14.1875C75.2187 14.3292 75.5456 14.3059 75.792 14.127C76.0379 13.948 76.1617 13.6446 76.1104 13.3447L75.3945 9.17188L78.4268 6.21973C78.6445 6.0073 78.7227 5.68882 78.6289 5.39941C78.5349 5.11018 78.2843 4.89858 77.9834 4.85449L73.793 4.24219L71.9189 0.445312L71.8623 0.348633C71.7147 0.132435 71.4677 0.000108804 71.2012 0V12.2168Z" fill="#FFCD83"/>
</svg>
