<svg width="32" height="32" viewBox="0 0 32 32" fill="none" xmlns="http://www.w3.org/2000/svg">
<path d="M27.2 16V30H4.8V16M16 30V9M16 9H9.7C8.77174 9 7.8815 8.63125 7.22513 7.97487C6.56875 7.3185 6.2 6.42826 6.2 5.5C6.2 4.57174 6.56875 3.6815 7.22513 3.02513C7.8815 2.36875 8.77174 2 9.7 2C14.6 2 16 9 16 9ZM16 9H22.3C23.2283 9 24.1185 8.63125 24.7749 7.97487C25.4313 7.3185 25.8 6.42826 25.8 5.5C25.8 4.57174 25.4313 3.6815 24.7749 3.02513C24.1185 2.36875 23.2283 2 22.3 2C17.4 2 16 9 16 9ZM2 9H30V16H2V9Z" stroke="white" stroke-width="3" stroke-linecap="round" stroke-linejoin="round"/>
</svg>
